<?xml version="1.0" encoding="UTF-8"?>
<svg id="Layer_1" xmlns="http://www.w3.org/2000/svg" viewBox="0 0 247.27 212.85">
  <defs>
    <style>
      .cls-1 {
        fill: #6257e3;
      }

      .cls-2 {
        fill: #9aedb6;
      }

      .cls-3 {
        fill: #a16ae8;
      }
    </style>
  </defs>
  <path class="cls-2" d="M244.47,58.73c-4.27-10.35-13.57-24.49-33.21-28.36C185.53,25.31,67.21,13.02,21.93,8.41h0c-.25-.03-.51-.05-.75-.08-2.71-.33-11.26-1.71-16.3-8.33L.67,45.74h0l-.22,2.55c-.39,5.13-1.01,17.21.64,28.67,3.39,13.95,12.5,34.3,36.95,37.32,4.09.5,9.69,1.17,16.44,1.95,41.01,4.75,124.15,13.88,164.78,18.32,4.56.61,12.48,2.46,15.18,5.5,3.31,3.72,3.4,4.65,3.65,7.93,0,0,3.95-2.46,4.59-10.87l.22-2.82h0l4.28-55.61c.17-2.57.47-11.52-2.73-19.95h.02Z"/>
  <path class="cls-1" d="M233.28,149.88c-.36-1.02-.95-2.15-1.93-3.49-2.46-3.36-10.62-4.89-15.18-5.5-40.64-4.44-123.77-13.57-164.78-18.32h0c-3.37-.39-6.45-.75-9.2-1.08,0,0,7.33,58.94,8.56,63.45,1.23,4.5,5.53,7.04,5.53,7.04,0,0-1.77-6.91,5.15-8.29l150.25-16.51s11-1.87,19.35-9.36c1.33-1.15,2.07-3.42,2.43-4.86.13-1.14.05-2.18-.17-3.07h-.01Z"/>
  <path class="cls-3" d="M141.38,182.03l-69.52,7.64c-2.79.41-6.63,1.24-7.97,2.87h0c-1.35,1.49-2.32,3.55-.62,5.77,2.88,2.95,7.12,5.75,13.02,5.98,10.28.4,71.96,3.21,96.25,4.31,1.71.17,3.8.53,5.73,1.28,1.85.7,3.66,1.69,4,2.97l.09-3.81h.03l.24-12.03h0l.4-19.57-41.65,4.58h0Z"/>
</svg>