<?xml version="1.0" encoding="UTF-8"?>
<svg id="Layer_1" xmlns="http://www.w3.org/2000/svg" viewBox="0 0 842.21 237.7">
  <defs>
    <style>
      .cls-1 {
        fill: #606161;
        font-family: Avenir-Black, Avenir;
        font-size: 54.35px;
        font-weight: 800;
        letter-spacing: .79em;
      }

      .cls-2 {
        fill: #6257e3;
      }

      .cls-3 {
        fill: #9aedb6;
      }

      .cls-4 {
        fill: #4d4d4d;
      }

      .cls-5 {
        fill: #a16ae8;
      }
    </style>
  </defs>
  <text class="cls-1" transform="translate(277.99 212.87)"><tspan x="0" y="0">SECURITY</tspan></text>
  <path class="cls-3" d="M244.47,58.73c-4.27-10.35-13.57-24.49-33.21-28.36C185.53,25.31,67.21,13.02,21.93,8.41h0c-.25-.03-.51-.05-.75-.08-2.71-.33-11.26-1.71-16.3-8.33L.67,45.74h0s0,0,0,0l-.22,2.55c-.39,5.13-1.01,17.21.64,28.67,3.39,13.95,12.5,34.3,36.95,37.32,4.09.5,9.69,1.17,16.44,1.95,41.01,4.75,124.15,13.88,164.78,18.32,4.56.61,12.48,2.46,15.18,5.5,3.31,3.72,3.4,4.65,3.65,7.93,0,0,3.95-2.46,4.59-10.87l.22-2.82h0s4.28-55.61,4.28-55.61c.17-2.57.47-11.52-2.73-19.95Z"/>
  <path class="cls-2" d="M233.28,149.88c-.36-1.02-.95-2.15-1.93-3.49-2.46-3.36-10.62-4.89-15.18-5.5-40.64-4.44-123.77-13.57-164.78-18.32h0c-3.37-.39-6.45-.75-9.2-1.08,0,0,7.33,58.94,8.56,63.45,1.23,4.5,5.53,7.04,5.53,7.04,0,0-1.77-6.91,5.15-8.29l150.25-16.51s11-1.87,19.35-9.36c1.33-1.15,2.07-3.42,2.43-4.86.13-1.14.05-2.18-.17-3.07Z"/>
  <path class="cls-5" d="M141.38,182.03l-69.52,7.64c-2.79.41-6.63,1.24-7.97,2.87,0,0,0,0,0,0-1.35,1.49-2.32,3.55-.62,5.77,2.88,2.95,7.12,5.75,13.02,5.98,10.28.4,71.96,3.21,96.25,4.31,1.71.17,3.8.53,5.73,1.28,1.85.7,3.66,1.69,4,2.97l.09-3.81s.03,0,.03,0l.24-12.03h0s.4-19.57.4-19.57l-41.65,4.58Z"/>
  <g>
    <g>
      <g>
        <g>
          <path class="cls-4" d="M393.27,143.14h-104.24c-1.64,0-3.16-.29-4.57-.88-1.41-.58-2.62-1.39-3.65-2.42-1.03-1.02-1.83-2.24-2.42-3.65-.59-1.41-.88-2.93-.88-4.57V17.11h22.85v103.18h92.9v22.85Z"/>
          <path class="cls-4" d="M394.77,144.64h-105.74c-1.83,0-3.56-.33-5.15-.99-1.58-.66-2.97-1.58-4.13-2.74s-2.08-2.55-2.74-4.13c-.66-1.58-.99-3.31-.99-5.15V15.61h25.85v103.18h92.9v25.85ZM279.02,18.61v113.02c0,1.43.26,2.78.76,3.99.51,1.22,1.21,2.28,2.09,3.16.88.88,1.95,1.59,3.16,2.09,1.22.51,2.56.76,3.99.76h102.74v-19.85h-92.9V18.61h-19.85Z"/>
        </g>
        <g>
          <path class="cls-4" d="M526.87,131.63c0,1.64-.29,3.16-.88,4.57-.59,1.41-1.41,2.62-2.46,3.65-1.05,1.03-2.29,1.83-3.69,2.42-1.41.59-2.9.88-4.48.88h-51.5c-4.86,0-9.79-.53-14.77-1.58-4.98-1.05-9.8-2.68-14.46-4.88s-9.04-5-13.14-8.39c-4.1-3.4-7.69-7.43-10.77-12.08s-5.49-9.99-7.25-16c-1.76-6.01-2.64-12.7-2.64-20.08V17.11h22.85v63.02c0,6.45.89,11.9,2.68,16.35,1.79,4.45,4.06,8.17,6.81,11.16,2.75,2.99,5.77,5.33,9.05,7.03,3.28,1.7,6.4,2.96,9.36,3.78,2.96.82,5.57,1.33,7.82,1.54,2.25.21,3.74.31,4.44.31h40.17V17.11h22.85v114.52Z"/>
          <path class="cls-4" d="M515.35,144.64h-51.5c-4.95,0-10.02-.54-15.08-1.61-5.07-1.07-10.05-2.75-14.79-4.99-4.75-2.24-9.28-5.13-13.46-8.6-4.2-3.47-7.92-7.65-11.06-12.41-3.15-4.76-5.65-10.28-7.44-16.4-1.79-6.12-2.7-13.01-2.7-20.5V15.61h25.85v64.52c0,6.23.87,11.54,2.57,15.79,1.71,4.27,3.91,7.87,6.52,10.71,2.62,2.85,5.53,5.11,8.64,6.72,3.17,1.64,6.22,2.88,9.07,3.67,2.85.79,5.39,1.29,7.56,1.49,2.72.25,3.84.3,4.3.3h38.67V15.61h25.85v116.02c0,1.83-.33,3.56-.99,5.15-.66,1.59-1.61,2.99-2.8,4.15-1.19,1.15-2.59,2.07-4.16,2.73-1.58.66-3.28.99-5.06.99ZM402.33,18.61v61.52c0,7.21.87,13.82,2.58,19.66,1.71,5.83,4.08,11.08,7.06,15.59,2.98,4.52,6.51,8.47,10.47,11.76,3.98,3.3,8.3,6.06,12.82,8.19,4.53,2.14,9.29,3.74,14.13,4.77,4.85,1.03,9.72,1.55,14.46,1.55h51.5c1.38,0,2.69-.26,3.91-.76,1.22-.51,2.31-1.22,3.22-2.11.9-.88,1.62-1.94,2.12-3.15.51-1.22.76-2.56.76-3.99V18.61h-19.85v103.18h-41.67c-.76,0-2.3-.11-4.57-.31-2.35-.21-5.07-.75-8.09-1.59-3.05-.85-6.3-2.16-9.65-3.89-3.42-1.77-6.6-4.24-9.47-7.35-2.86-3.11-5.25-7.02-7.1-11.62-1.85-4.6-2.79-10.29-2.79-16.91V18.61h-19.85Z"/>
        </g>
        <g>
          <path class="cls-4" d="M700.1,143.14h-23.03v-75.06l-40.52,71.28c-1,1.82-2.39,3.19-4.17,4.13-1.79.94-3.71,1.41-5.76,1.41s-3.85-.47-5.58-1.41c-1.73-.94-3.09-2.31-4.09-4.13l-40.69-71.28v75.06h-22.85V26.86c0-2.64.78-4.98,2.33-7.03,1.55-2.05,3.59-3.43,6.11-4.13,1.23-.29,2.46-.4,3.69-.31s2.42.35,3.56.79,2.18,1.05,3.12,1.85c.94.79,1.73,1.74,2.37,2.86l52.03,90.44,52.03-90.44c1.35-2.23,3.21-3.81,5.58-4.75,2.37-.94,4.85-1.08,7.43-.44,2.46.7,4.48,2.08,6.06,4.13,1.58,2.05,2.37,4.39,2.37,7.03v116.28Z"/>
          <path class="cls-4" d="M626.62,146.4c-2.23,0-4.35-.53-6.3-1.59-1.98-1.07-3.55-2.66-4.69-4.73l-37.88-66.35v70.91h-25.85V26.86c0-2.96.89-5.63,2.63-7.94,1.75-2.31,4.07-3.88,6.9-4.67,1.43-.34,2.82-.46,4.2-.36,1.37.1,2.72.4,3.99.89,1.29.5,2.49,1.2,3.55,2.1,1.06.9,1.97,1.99,2.7,3.25l50.73,88.19,50.73-88.18c1.53-2.53,3.66-4.34,6.33-5.39,2.66-1.05,5.47-1.22,8.34-.5,2.81.8,5.11,2.37,6.89,4.67,1.78,2.31,2.69,4.98,2.69,7.95v117.78h-26.03v-70.88l-37.71,66.35c-1.13,2.06-2.74,3.65-4.78,4.72-2,1.05-4.17,1.58-6.45,1.58ZM574.76,62.43l43.5,76.19c.88,1.6,2.02,2.75,3.5,3.56,3.06,1.66,6.85,1.6,9.93-.01,1.53-.8,2.69-1.95,3.56-3.52l43.33-76.23v79.23h20.03V26.86c0-2.32-.67-4.32-2.06-6.12-1.39-1.81-3.12-2.99-5.29-3.6-2.24-.56-4.37-.44-6.46.39-2.08.82-3.67,2.17-4.85,4.13l-53.31,92.67-53.33-92.7c-.55-.96-1.24-1.78-2.04-2.46-.8-.68-1.71-1.21-2.69-1.59-1-.39-2.05-.62-3.13-.7-1.07-.08-2.16.02-3.24.27-2.16.6-3.9,1.78-5.26,3.58-1.36,1.8-2.03,3.8-2.03,6.13v114.78h19.85V62.43Z"/>
        </g>
      </g>
      <g>
        <g>
          <rect class="cls-4" x="762.4" y="68.61" width="67.86" height="23.03"/>
          <path class="cls-4" d="M831.76,93.14h-70.86v-26.03h70.86v26.03ZM763.9,90.14h64.86v-20.03h-64.86v20.03Z"/>
        </g>
        <g>
          <path class="cls-4" d="M840.55,17.11h-102.92c-1.64,0-3.16.29-4.57.88-1.41.59-2.62,1.41-3.65,2.46-1.03,1.05-1.83,2.29-2.42,3.69-.59,1.41-.88,2.9-.88,4.48v82.44c0,5.92,1.07,10.91,3.21,14.99,2.14,4.07,4.8,7.38,8,9.93,3.19,2.55,6.67,4.38,10.42,5.49,3.75,1.11,7.21,1.67,10.37,1.67h82.44v-22.85h-82.27c-3.05,0-5.36-.79-6.94-2.37s-2.37-3.87-2.37-6.86V39.96h91.58v-22.85Z"/>
          <path class="cls-4" d="M842.05,144.64h-83.94c-3.3,0-6.93-.58-10.8-1.73-3.91-1.16-7.59-3.1-10.92-5.76-3.34-2.67-6.16-6.17-8.39-10.41-2.24-4.27-3.38-9.54-3.38-15.68V28.62c0-1.77.33-3.48.99-5.06.65-1.57,1.57-2.97,2.73-4.16,1.16-1.19,2.55-2.14,4.15-2.8,1.59-.66,3.32-.99,5.15-.99h104.42v25.85h-91.58v69.6c0,2.6.63,4.49,1.93,5.79s3.26,1.93,5.88,1.93h83.77v25.85ZM737.63,18.61c-1.43,0-2.77.26-3.99.76-1.21.5-2.27,1.22-3.15,2.12-.89.92-1.6,2-2.11,3.22-.51,1.22-.76,2.53-.76,3.91v82.44c0,5.65,1.02,10.45,3.04,14.29,2.03,3.87,4.59,7.05,7.61,9.46,3.03,2.42,6.36,4.18,9.91,5.23,3.59,1.07,6.94,1.61,9.94,1.61h80.94v-19.85h-80.77c-3.45,0-6.14-.95-8-2.81s-2.81-4.53-2.81-7.92V38.46h91.58v-19.85h-101.42Z"/>
        </g>
      </g>
    </g>
    <rect class="cls-4" x="746.42" y="67.09" width="19.44" height="26.02"/>
  </g>
</svg>